<svg xmlns="http://www.w3.org/2000/svg" version="1.1" xmlns:xlink="http://www.w3.org/1999/xlink" xmlns:svgjs="http://svgjs.dev/svgjs" width="1440" height="560" preserveAspectRatio="none" viewBox="0 0 1440 560"><g mask="url(&quot;#SvgjsMask1008&quot;)" fill="none"><path d="M308.97 0C366.13 26.83 371.11 65.71 420 65.71C451.02 65.71 435.68 15.54 468.79 0C505.68 -17.32 514.39 0 560 0C630 0 630 0 700 0C770 0 770 0 840 0C910 0 910 0 980 0C1050 0 1050 0 1120 0C1187.45 0 1188.95 -3.07 1254.91 0C1258.95 0.19 1257.56 6.51 1260 6.51C1262.33 6.51 1260.59 0.18 1264.44 0C1330.59 -3.08 1332.22 0 1400 0C1470 0 1505 -35 1540 0C1575 35 1540 70 1540 140C1540 186.13 1554.03 192.04 1540 232.27C1529.61 262.04 1516.78 257.47 1491.16 280C1446.78 319.03 1440.84 313.33 1400 355.38C1372.86 383.33 1355.2 386.73 1355.2 420C1355.2 458.11 1369.77 498.14 1400 498.14C1443.08 498.14 1455.33 463.38 1501.82 420C1525.33 398.06 1529.45 367.5 1540 367.5C1548.54 367.5 1540 393.75 1540 420C1540 490 1575 525 1540 560C1505 595 1470 560 1400 560C1330 560 1330 560 1260 560C1190 560 1190 560 1120 560C1050 560 1050 560 980 560C910 560 910 560 840 560C770 560 770 560 700 560C630 560 630 560 560 560C499.8 560 484.29 580.85 439.6 560C414.29 548.19 445.26 497.79 420 494.67C365.46 487.94 350.74 520.22 280 540.31C235.74 552.88 235.37 553.62 190 560C165.37 563.46 165 560 140 560C70 560 35.61 594.39 0 560C-34.39 526.8 -31.85 437.08 0 424.83C38.15 410.16 88.88 507.71 140 506.15C167.77 505.3 134.05 455 157.78 420C204.05 351.77 219.27 360.21 280 299.69C289.51 290.21 298.26 289.81 298.26 280C298.26 270.27 290.98 268.05 280 260.62C211.85 214.52 209.92 172.76 140 172.94C69.92 173.12 40.4 270.83 0 261.33C-29.6 254.36 0 200.66 0 140C0 70 -35 35 0 0C35 -35 70 0 140 0C210 0 210 0 280 0C294.49 0 296.13 -6.02 308.97 0" stroke="rgba(201, 68, 0, 1)" stroke-width="2"></path><path d="M560 94.06C532.36 94.06 497.45 113.38 497.45 140C497.45 173.1 533.96 213.5 560 213.5C581.75 213.5 593.03 175.08 593.03 140C593.03 115.36 580.15 94.06 560 94.06" stroke="rgba(201, 68, 0, 1)" stroke-width="2"></path><path d="M1400 105.43C1376.17 105.43 1354.1 119.73 1354.1 140C1354.1 166.18 1375.47 198.33 1400 198.33C1426.99 198.33 1457.14 165.55 1457.14 140C1457.14 119.1 1427.69 105.43 1400 105.43" stroke="rgba(201, 68, 0, 1)" stroke-width="2"></path><path d="M980 268.57C975.67 268.57 972.43 273.86 972.43 280C972.43 289.58 975.47 300 980 300C984.86 300 991.2 289.25 991.2 280C991.2 273.54 985.05 268.57 980 268.57" stroke="rgba(201, 68, 0, 1)" stroke-width="2"></path><path d="M700 329.41C671.61 329.41 676.31 378.15 676.31 420C676.31 434.45 684.88 442 700 442C760.89 442 828.33 445.51 828.33 420C828.33 389.22 747.62 329.41 700 329.41" stroke="rgba(201, 68, 0, 1)" stroke-width="2"></path><path d="M118.46 0C145.2 38.1 129.88 82.68 98.25 140C70.65 190.01 30.61 214.67 0 214.67C-18.52 214.67 0 177.33 0 140C0 70 -32.08 37.92 0 0C27.15 -32.08 96.07 -31.9 118.46 0" stroke="rgba(201, 68, 0, 1)" stroke-width="2"></path><path d="M189.58 140C189.58 99.52 229.96 53.82 280 53.2C345.17 52.39 350.27 94.81 420 137.14C421.76 138.21 421.66 138.42 422.98 140C481.41 209.85 481.12 210.11 539.51 280C549.63 292.11 551.99 290.47 560 304C593.46 360.47 583.64 367.87 622.46 420C653.64 461.87 653.28 473.96 700 492C762.05 515.96 774.88 519.97 840 504C914.88 485.64 910.02 463.7 980 423.33C982.82 421.7 984 422.82 985.6 420C1024.6 351.15 1062.82 344.44 1061.2 280C1060.02 233.01 1016.64 197.14 980 197.14C948.61 197.14 956.17 241.4 925.14 280C886.17 328.48 884.23 371.3 840 371.3C792.44 371.3 790.01 326.44 741.56 280C720.01 259.34 718.31 260.58 700 237.1C663.71 190.58 666.55 188.29 632.36 140C596.55 89.43 598.31 87.9 560 39.38C543.04 17.9 521.82 11.61 521.82 0C521.82 -8.08 540.91 0 560 0C630 0 630 0 700 0C770 0 770 0 840 0C910 0 910 0 980 0C1050 0 1050 0 1120 0C1155.64 0 1163.99 -17.13 1191.27 0C1233.99 26.82 1226.44 43.36 1260 87.91C1279.17 113.36 1296.72 111.21 1296.72 140C1296.72 193.25 1282.66 198.33 1260 252C1253.1 268.33 1237.6 267.13 1237.6 280C1237.6 290.47 1253.53 285.9 1260 298.67C1288.99 355.9 1281.38 360.64 1308.53 420C1341.14 491.3 1393.29 520.26 1379.51 560C1369.02 590.26 1319.76 560 1260 560C1201.66 560 1195.7 571.82 1143.33 560C1125.7 556.02 1131.17 528.39 1120 528.39C1109.3 528.39 1116.34 556.22 1099.58 560C1046.34 572.02 1039.79 560 980 560C910 560 910 560 840 560C770 560 770 560 700 560C630 560 630 560 560 560C534.8 560 520.98 578.05 509.6 560C476.85 508.05 502.09 482.92 471.74 420C457.29 390.03 445.75 374.23 420 374.23C394.56 374.23 396.03 398.78 369.36 420C326.03 454.48 322.31 485.63 280 485.63C244.3 485.63 213.33 452.81 213.33 420C213.33 387.19 247.46 387.96 280 354.38C315.29 317.96 348.99 317.06 348.99 280C348.99 243.25 317.65 239.83 280 206.77C237.94 169.83 189.58 176.3 189.58 140" stroke="rgba(201, 68, 0, 1)" stroke-width="2"></path><path d="M840 84.44C811.43 84.44 788.53 112.9 788.53 140C788.53 165.68 811.76 190 840 190C876.39 190 917.78 165.95 917.78 140C917.78 113.17 876.06 84.44 840 84.44" stroke="rgba(201, 68, 0, 1)" stroke-width="2"></path><path d="M1400 62.22C1357.45 62.22 1320 17.39 1320 0C1320 -13.72 1360 0 1400 0C1457.28 0 1514.55 -14.55 1514.55 0C1514.55 16.56 1454.73 62.22 1400 62.22" stroke="rgba(201, 68, 0, 1)" stroke-width="2"></path><path d="M1528.57 140C1528.57 118.1 1537.1 93.33 1540 93.33C1542.82 93.33 1540 116.66 1540 140C1540 146.37 1542.44 152.73 1540 152.73C1536.72 152.73 1528.57 147.8 1528.57 140" stroke="rgba(201, 68, 0, 1)" stroke-width="2"></path><path d="M1340 280C1340 275.79 1371.32 271.25 1400 271.25C1406.2 271.25 1409.77 275.72 1409.77 280C1409.77 284.14 1406.04 288.08 1400 288.08C1371.16 288.08 1340 284.2 1340 280" stroke="rgba(201, 68, 0, 1)" stroke-width="2"></path><path d="M0 485.17C25.63 485.17 85.1 538.63 85.1 560C85.1 576.05 22.64 579.91 0 560C-19.91 542.49 -16.92 485.17 0 485.17" stroke="rgba(201, 68, 0, 1)" stroke-width="2"></path><path d="M1420.49 560C1420.49 533 1503.26 463.92 1540 463.92C1563.02 463.92 1566.63 538.59 1540 560C1506.88 586.63 1420.49 581.04 1420.49 560" stroke="rgba(201, 68, 0, 1)" stroke-width="2"></path><path d="M28.72 0C44.01 58.1 47.64 76.84 36.84 140C33.28 160.84 11.48 168 0 168C-6.94 168 0 154 0 140C0 70 -11.92 58.08 0 0C2.44 -11.92 25.59 -11.9 28.72 0" stroke="rgba(201, 68, 0, 1)" stroke-width="2"></path><path d="M262.5 140C262.5 132.17 270.3 123.2 280 123.2C293.05 123.2 308 132.36 308 140C308 147.22 293.34 152.92 280 152.92C270.59 152.92 262.5 147.03 262.5 140" stroke="rgba(201, 68, 0, 1)" stroke-width="2"></path><path d="M671.69 140C671.69 82.7 683.81 20 700 20C716.49 20 737.06 84.14 737.06 140C737.06 164.47 717.2 180.65 700 180.65C684.51 180.65 671.69 163.02 671.69 140" stroke="rgba(201, 68, 0, 1)" stroke-width="2"></path><path d="M840 28.89C785.18 28.89 726.25 7.34 726.25 0C726.25 -7.11 783.13 0 840 0C864.6 0 889.19 -6.69 889.19 0C889.19 7.76 866.65 28.89 840 28.89" stroke="rgba(201, 68, 0, 1)" stroke-width="2"></path><path d="M1005 140C1001.04 74.02 1051.72 64.18 1104.44 0C1109.22 -5.82 1112.22 0 1120 0C1123.82 0 1125.45 -3.04 1127.64 0C1175.77 66.96 1222.61 72.78 1220.63 140C1218.79 202.41 1172.29 259.26 1120 259.26C1064.48 259.26 1008.82 203.65 1005 140" stroke="rgba(201, 68, 0, 1)" stroke-width="2"></path><path d="M1400 19.01C1387 19.01 1375.56 5.31 1375.56 0C1375.56 -4.19 1387.78 0 1400 0C1417.5 0 1435 -4.45 1435 0C1435 5.06 1416.72 19.01 1400 19.01" stroke="rgba(201, 68, 0, 1)" stroke-width="2"></path><path d="M399.71 280C399.71 260.37 407.43 238.82 420 238.82C434.65 238.82 454.15 261.22 454.15 280C454.15 295.27 435.33 306.92 420 306.92C408.11 306.92 399.71 294.42 399.71 280" stroke="rgba(201, 68, 0, 1)" stroke-width="2"></path><path d="M796.25 280C796.25 259.92 818.85 240 840 240C859.65 240 877.84 259.93 877.84 280C877.84 300.22 859.66 320.58 840 320.58C818.86 320.58 796.25 300.21 796.25 280" stroke="rgba(201, 68, 0, 1)" stroke-width="2"></path><path d="M268.89 420C268.89 414.53 274.05 409.06 280 409.06C287.05 409.06 294.89 414.53 294.89 420C294.89 425.47 287.05 430.94 280 430.94C274.05 430.94 268.89 425.47 268.89 420" stroke="rgba(201, 68, 0, 1)" stroke-width="2"></path><path d="M547.83 420C547.83 410.72 554.54 404 560 404C564.94 404 568.62 411.29 568.62 420C568.62 444.75 565.16 470.91 560 470.91C554.77 470.91 547.83 444.17 547.83 420" stroke="rgba(201, 68, 0, 1)" stroke-width="2"></path><path d="M1190 420C1195.44 396.38 1226.47 415.33 1260 415.33C1262.4 415.33 1261.29 417.55 1261.87 420C1278.37 489.89 1294.91 503.44 1294.15 560C1293.97 573.44 1277.07 560 1260 560C1243.34 560 1233.22 573.1 1226.67 560C1198.22 503.1 1178.78 468.72 1190 420" stroke="rgba(201, 68, 0, 1)" stroke-width="2"></path><path d="M0 545.52C4.96 545.52 16.47 555.87 16.47 560C16.47 563.11 4.38 563.85 0 560C-3.85 556.61 -3.27 545.52 0 545.52" stroke="rgba(201, 68, 0, 1)" stroke-width="2"></path><path d="M621.25 560C621.25 555.44 660.75 542 700 542C735.12 542 770 555.43 770 560C770 564.43 735 560 700 560C660.63 560 621.25 564.44 621.25 560" stroke="rgba(201, 68, 0, 1)" stroke-width="2"></path><path d="M890.4 560C890.4 545.66 939.44 506.67 980 506.67C1007.57 506.67 1026.67 543.92 1026.67 560C1026.67 570.59 1003.34 560 980 560C935.2 560 890.4 572.32 890.4 560" stroke="rgba(201, 68, 0, 1)" stroke-width="2"></path><path d="M1505.85 560C1505.85 552.29 1529.5 532.55 1540 532.55C1546.58 532.55 1547.61 553.88 1540 560C1530.53 567.61 1505.85 566.01 1505.85 560" stroke="rgba(201, 68, 0, 1)" stroke-width="2"></path></g><defs><mask id="SvgjsMask1008"><rect width="1440" height="560" fill="#ffffff"></rect></mask></defs></svg>