<svg xmlns="http://www.w3.org/2000/svg" version="1.1" xmlns:xlink="http://www.w3.org/1999/xlink" xmlns:svgjs="http://svgjs.dev/svgjs" width="1440" height="560" preserveAspectRatio="none" viewBox="0 0 1440 560"><g mask="url(&quot;#SvgjsMask1022&quot;)" fill="none"><path d="M0 50.49C14.5 17.53 26.32 12.72 61.6 0C96.32 -12.52 100.8 0 140 0C210 0 210 0 280 0C350 0 350 0 420 0C448.97 0 463.6 -19.84 477.93 0C514.16 50.16 490.36 76.38 521.11 140C531.39 161.27 537.96 169.79 560 169.79C604.07 169.79 612.11 163.49 653.33 140C682.11 123.6 679.34 117.12 700 90C732.67 47.12 719.76 25.87 760 0C789.76 -19.13 800 0 840 0C885.4 0 887.96 -9.13 930.81 0C957.96 5.79 952.5 23.97 980 29.84C1047.1 44.16 1057.49 51.38 1120 40.38C1142.28 36.46 1127.75 6.3 1149.58 0C1197.75 -13.89 1204.79 0 1260 0C1310.91 0 1336.53 -29.32 1361.82 0C1396.91 40.68 1365.05 72.7 1380.75 140C1384.14 154.54 1386.21 163.69 1400 163.69C1450.83 163.69 1501.05 174.38 1510 140C1522.36 92.53 1433.39 43.03 1442.61 0C1448.39 -26.97 1520.02 -28.72 1540 0C1568.72 41.28 1540 70 1540 140C1540 149.55 1542.39 149.9 1540 159.09C1524.17 219.9 1533.38 225.49 1503.56 280C1463.38 353.44 1452.96 348.83 1400 415C1396.94 418.83 1394.2 415.91 1391.52 420C1346.78 488.41 1356.76 505.08 1305.16 560C1291 575.08 1282.58 560 1260 560C1190 560 1190 560 1120 560C1050 560 1050 560 980 560C911.84 560 874.83 594.49 843.68 560C811.61 524.49 834.03 485.87 853.55 420C875.52 345.87 930.92 335.13 926.67 280C924.15 247.28 882.95 263.04 840 244.31C769.62 213.63 751.84 170.56 700 181.18C664.69 188.41 677.5 229.27 665.71 280C649.74 348.68 632.79 360.07 644.48 420C649.93 447.96 673.26 436.43 700 455.78C769.99 506.43 837.94 531.02 837.94 560C837.94 583.13 768.97 560 700 560C630 560 630 560 560 560C490 560 490 560 420 560C350 560 350 560 280 560C210 560 210 560 140 560C70 560 35 595 0 560C-35 525 0 490 0 420C0 350 0 350 0 280C0 210 0 210 0 140C0 95.25 -16.3 87.53 0 50.49" stroke="rgba(201, 68, 0, 1)" stroke-width="2"></path><path d="M1468.37 560C1468.37 535.62 1519.53 478.95 1540 478.95C1555.34 478.95 1559.01 538.49 1540 560C1523.2 579.01 1468.37 576.14 1468.37 560" stroke="rgba(201, 68, 0, 1)" stroke-width="2"></path><path d="M0 107.87C55.35 48.99 64.89 51.4 131.6 0C134.89 -2.54 135.8 0 140 0C210 0 210 0 280 0C289.34 0 289.85 -2.87 298.67 0C359.85 19.88 372.62 7.34 420 45.5C459.53 77.34 437.84 100.01 472.5 140C507.84 180.77 518.93 170.51 560 207.02C597.68 240.51 625.09 236.66 630 280C637.16 343.15 566.06 364.55 584.14 420C601.06 471.88 643.36 455.48 700 494.67C744.53 525.48 786.47 541.83 786.47 560C786.47 574.5 743.24 560 700 560C630 560 630 560 560 560C490 560 490 560 420 560C350 560 350 560 280 560C210 560 210 560 140 560C93.34 560 80.68 581.14 46.67 560C10.68 537.63 15.19 518.53 0 472.97C-8.15 448.53 0 446.49 0 420C0 350 0 350 0 280C0 210 0 210 0 140C0 123.94 -10.45 118.99 0 107.87" stroke="rgba(201, 68, 0, 1)" stroke-width="2"></path><path d="M775 140C775 85.14 791.19 22.57 840 10C893.69 -3.83 905.73 61.3 980 87.21C1045.73 110.14 1063.69 130.13 1120 107.69C1173.12 86.52 1150.86 36.93 1198.87 0C1220.86 -16.91 1229.43 0 1260 0C1288.18 0 1305.39 -19.94 1316.36 0C1343.89 50.06 1312.49 76.24 1337 140C1354.31 185.01 1367.72 179.44 1400 217.54C1427.03 249.44 1455.62 247.75 1455.62 280C1455.62 315.23 1431.59 352.5 1400 352.5C1361.49 352.5 1358.49 315.29 1315.42 280C1288.49 257.93 1288.49 237.78 1260 237.78C1228.34 237.78 1195.12 251.53 1195.12 280C1195.12 325.84 1226.25 334.09 1260 386.4C1271.42 404.09 1285.45 402.68 1285.45 420C1285.45 439.48 1280.93 454.86 1260 460C1198.2 475.18 1178.81 435.14 1120 460.65C1063.52 485.14 1080.6 523.67 1029.41 560C1010.6 573.35 1004.7 560 980 560C957.89 560 944.08 576.59 935.79 560C909.08 506.59 897.74 483.89 910 420C919.85 368.68 941.18 371.06 980 329.58C1006.69 301.06 1041.03 306.17 1041.03 280C1041.03 251.63 1016.89 239.64 980 220.5C916.38 187.49 908.13 202.44 840 175.69C805.63 162.19 775 167.99 775 140" stroke="rgba(201, 68, 0, 1)" stroke-width="2"></path><path d="M1540 71.56C1527.3 71.56 1493.33 23.14 1493.33 0C1493.33 -12.64 1530.79 -14.12 1540 0C1554.12 21.66 1550.64 71.56 1540 71.56" stroke="rgba(201, 68, 0, 1)" stroke-width="2"></path><path d="M110 140C110 131.95 123.51 123.2 140 123.2C191.01 123.2 245 132.04 245 140C245 147.94 191.28 155 140 155C123.78 155 110 147.85 110 140" stroke="rgba(201, 68, 0, 1)" stroke-width="2"></path><path d="M326.67 140C326.67 132.02 375.22 133 420 133C423.83 133 423.89 136.15 423.89 140C423.89 152.38 430.22 165.45 420 165.45C381.61 165.45 326.67 148.25 326.67 140" stroke="rgba(201, 68, 0, 1)" stroke-width="2"></path><path d="M1176.88 140C1173.17 82.82 1209.52 65.1 1248.17 0C1251.08 -4.9 1254.09 0 1260 0C1265.45 0 1269.72 -5 1270.91 0C1286.35 65 1297.21 73.93 1293.25 140C1291.75 165.04 1281.28 182.22 1260 182.22C1223.09 182.22 1179.08 173.93 1176.88 140" stroke="rgba(201, 68, 0, 1)" stroke-width="2"></path><path d="M0 221.05C9.09 221.05 33.94 250.52 33.94 280C33.94 309.48 9.09 338.95 0 338.95C-7.88 338.95 0 309.48 0 280C0 250.52 -7.88 221.05 0 221.05" stroke="rgba(201, 68, 0, 1)" stroke-width="2"></path><path d="M458.18 280C458.18 252.74 513.35 244.26 560 244.26C581.41 244.26 594.29 258.78 594.29 280C594.29 319.73 587.91 366.15 560 366.15C519.85 366.15 458.18 313.69 458.18 280" stroke="rgba(201, 68, 0, 1)" stroke-width="2"></path><path d="M1388.33 280C1388.33 275.48 1394.61 271.38 1400 271.38C1404.28 271.38 1407.67 275.55 1407.67 280C1407.67 284.86 1404.36 290 1400 290C1394.69 290 1388.33 284.79 1388.33 280" stroke="rgba(201, 68, 0, 1)" stroke-width="2"></path><path d="M110 420C114.1 405.07 127.37 405 140 405C146.41 405 142.67 413.44 148.08 420C206.58 490.94 270.22 518.67 267.83 560C266.18 588.67 203.91 560 140 560C118.69 560 100.88 576.28 97.39 560C85.88 506.28 92.8 482.57 110 420" stroke="rgba(201, 68, 0, 1)" stroke-width="2"></path><path d="M966.45 420C966.45 410.01 971.07 402.5 980 402.5C996.94 402.5 1018.18 407.09 1018.18 420C1018.18 437.95 994.44 464.21 980 464.21C968.57 464.21 966.45 440.87 966.45 420" stroke="rgba(201, 68, 0, 1)" stroke-width="2"></path><path d="M483.64 560C483.64 542.48 516.15 503.14 560 497.78C624.33 489.92 632.88 509.69 700 533.56C720.38 540.8 735 552.65 735 560C735 565.87 717.5 560 700 560C630 560 630 560 560 560C521.82 560 483.64 573.59 483.64 560" stroke="rgba(201, 68, 0, 1)" stroke-width="2"></path></g><defs><mask id="SvgjsMask1022"><rect width="1440" height="560" fill="#ffffff"></rect></mask></defs></svg>